<?xml version="1.0" encoding="UTF-8"?>
<!DOCTYPE svg PUBLIC "-//W3C//DTD SVG 1.1//EN" "http://www.w3.org/Graphics/SVG/1.1/DTD/svg11.dtd">
<svg version="1.2" width="190mm" height="98.91mm" viewBox="455 2943 19000 9891" preserveAspectRatio="xMidYMid" fill-rule="evenodd" stroke-width="28.222" stroke-linejoin="round" xmlns="http://www.w3.org/2000/svg" xmlns:ooo="http://xml.openoffice.org/svg/export" xmlns:xlink="http://www.w3.org/1999/xlink" xmlns:presentation="http://sun.com/xmlns/staroffice/presentation" xmlns:smil="http://www.w3.org/2001/SMIL20/" xmlns:anim="urn:oasis:names:tc:opendocument:xmlns:animation:1.0" xmlns:svg="urn:oasis:names:tc:opendocument:xmlns:svg-compatible:1.0" xml:space="preserve">
 <defs class="EmbeddedBulletChars">
  <g id="bullet-char-template-57356" transform="scale(0.00048828125,-0.00048828125)">
   <path d="M 580,1141 L 1163,571 580,0 -4,571 580,1141 Z"/>
  </g>
  <g id="bullet-char-template-57354" transform="scale(0.00048828125,-0.00048828125)">
   <path d="M 8,1128 L 1137,1128 1137,0 8,0 8,1128 Z"/>
  </g>
  <g id="bullet-char-template-10146" transform="scale(0.00048828125,-0.00048828125)">
   <path d="M 174,0 L 602,739 174,1481 1456,739 174,0 Z M 1358,739 L 309,1346 659,739 1358,739 Z"/>
  </g>
  <g id="bullet-char-template-10132" transform="scale(0.00048828125,-0.00048828125)">
   <path d="M 2015,739 L 1276,0 717,0 1260,543 174,543 174,936 1260,936 717,1481 1274,1481 2015,739 Z"/>
  </g>
  <g id="bullet-char-template-10007" transform="scale(0.00048828125,-0.00048828125)">
   <path d="M 0,-2 C -7,14 -16,27 -25,37 L 356,567 C 262,823 215,952 215,954 215,979 228,992 255,992 264,992 276,990 289,987 310,991 331,999 354,1012 L 381,999 492,748 772,1049 836,1024 860,1049 C 881,1039 901,1025 922,1006 886,937 835,863 770,784 769,783 710,716 594,584 L 774,223 C 774,196 753,168 711,139 L 727,119 C 717,90 699,76 672,76 641,76 570,178 457,381 L 164,-76 C 142,-110 111,-127 72,-127 30,-127 9,-110 8,-76 1,-67 -2,-52 -2,-32 -2,-23 -1,-13 0,-2 Z"/>
  </g>
  <g id="bullet-char-template-10004" transform="scale(0.00048828125,-0.00048828125)">
   <path d="M 285,-33 C 182,-33 111,30 74,156 52,228 41,333 41,471 41,549 55,616 82,672 116,743 169,778 240,778 293,778 328,747 346,684 L 369,508 C 377,444 397,411 428,410 L 1163,1116 C 1174,1127 1196,1133 1229,1133 1271,1133 1292,1118 1292,1087 L 1292,965 C 1292,929 1282,901 1262,881 L 442,47 C 390,-6 338,-33 285,-33 Z"/>
  </g>
  <g id="bullet-char-template-9679" transform="scale(0.00048828125,-0.00048828125)">
   <path d="M 813,0 C 632,0 489,54 383,161 276,268 223,411 223,592 223,773 276,916 383,1023 489,1130 632,1184 813,1184 992,1184 1136,1130 1245,1023 1353,916 1407,772 1407,592 1407,412 1353,268 1245,161 1136,54 992,0 813,0 Z"/>
  </g>
  <g id="bullet-char-template-8226" transform="scale(0.00048828125,-0.00048828125)">
   <path d="M 346,457 C 273,457 209,483 155,535 101,586 74,649 74,723 74,796 101,859 155,911 209,963 273,989 346,989 419,989 480,963 531,910 582,859 608,796 608,723 608,648 583,586 532,535 482,483 420,457 346,457 Z"/>
  </g>
  <g id="bullet-char-template-8211" transform="scale(0.00048828125,-0.00048828125)">
   <path d="M -4,459 L 1135,459 1135,606 -4,606 -4,459 Z"/>
  </g>
  <g id="bullet-char-template-61548" transform="scale(0.00048828125,-0.00048828125)">
   <path d="M 173,740 C 173,903 231,1043 346,1159 462,1274 601,1332 765,1332 928,1332 1067,1274 1183,1159 1299,1043 1357,903 1357,740 1357,577 1299,437 1183,322 1067,206 928,148 765,148 601,148 462,206 346,322 231,437 173,577 173,740 Z"/>
  </g>
 </defs>
 <g class="Page">
  <g class="com.sun.star.drawing.ClosedBezierShape">
   <g id="id3">
    <rect class="BoundingBox" stroke="none" fill="none" x="3063" y="5731" width="4625" height="4215"/>
    <path fill="rgb(108,39,177)" stroke="none" d="M 4273,9932 C 4253,9912 4299,9742 4360,9605 4391,9535 4412,9463 4406,9446 4397,9425 4342,9412 4230,9404 3771,9374 3402,9023 3349,8567 3338,8478 3311,8404 3257,8319 3215,8254 3154,8128 3123,8040 3073,7904 3065,7843 3064,7614 3062,7376 3069,7324 3126,7150 3243,6795 3467,6475 3769,6234 4188,5898 4740,5711 5242,5734 5409,5741 5472,5755 5563,5800 5668,5853 5681,5855 5739,5825 5819,5783 6032,5783 6132,5825 6242,5870 6349,5967 6399,6066 6452,6170 6457,6351 6408,6445 6361,6537 6385,6603 6461,6595 6575,6582 6649,6303 6593,6101 L 6575,6039 6727,6118 C 6892,6205 7066,6340 7179,6472 L 7252,6556 7171,6551 C 7076,6544 7039,6574 7049,6646 7056,6691 7074,6702 7166,6715 7419,6751 7599,6958 7664,7290 7753,7737 7570,8145 7242,8235 7177,8254 7042,8274 6941,8282 6841,8289 6720,8308 6673,8325 L 6588,8355 6512,8200 C 6412,7997 6250,7822 6091,7744 5988,7693 5928,7681 5754,7673 5562,7665 5537,7659 5499,7611 5406,7493 5053,7313 4914,7313 4859,7313 4856,7309 4873,7241 4927,7031 4863,6777 4718,6625 4534,6431 4159,6376 4193,6548 4199,6578 4229,6592 4313,6602 4375,6609 4455,6631 4491,6650 4709,6763 4794,7047 4679,7276 4627,7381 4627,7385 4666,7414 4690,7431 4755,7451 4811,7459 5084,7495 5294,7603 5410,7766 L 5465,7843 5637,7831 C 5893,7815 6042,7863 6188,8013 6343,8172 6430,8352 6415,8484 6384,8760 6072,8915 5741,8819 5669,8798 5589,8767 5562,8749 5479,8695 5168,8591 5006,8563 4766,8523 4501,8591 4501,8695 4501,8764 4562,8782 4675,8748 4861,8692 5064,8718 5349,8836 L 5515,8904 5377,8966 C 5142,9070 4978,9254 4770,9649 4730,9724 4662,9822 4620,9866 4550,9938 4533,9944 4415,9944 4343,9944 4280,9939 4273,9932 L 4273,9932 Z "/>
   </g>
  </g>
  <g class="com.sun.star.drawing.ClosedBezierShape">
   <g id="id4">
    <rect class="BoundingBox" stroke="none" fill="none" x="455" y="2943" width="5253" height="9891"/>
    <path fill="rgb(62,82,161)" stroke="none" d="M 5075,12815 C 4955,12776 4838,12674 4790,12565 L 4747,12471 4539,12457 C 4014,12422 3244,12183 2712,11886 2273,11643 1765,11217 1444,10825 926,10192 598,9412 482,8539 442,8234 448,7538 494,7214 711,5692 1683,4371 3076,3702 3530,3483 4162,3321 4559,3321 L 4725,3321 4772,3220 C 4918,2911 5306,2849 5554,3095 5921,3462 5560,4040 5049,3899 4992,3883 4924,3834 4847,3755 L 4731,3634 4521,3667 C 3877,3766 3260,3994 2761,4319 1686,5017 1091,5927 852,7235 802,7510 784,8162 819,8477 964,9819 1816,11049 3017,11655 3473,11885 4294,12106 4693,12107 4792,12107 4811,12100 4855,12041 4911,11965 5035,11895 5153,11873 5415,11824 5706,12077 5706,12352 5706,12513 5582,12713 5438,12787 5351,12833 5172,12846 5075,12815 L 5075,12815 Z "/>
   </g>
  </g>
  <g class="com.sun.star.drawing.ClosedBezierShape">
   <g id="id5">
    <rect class="BoundingBox" stroke="none" fill="none" x="10437" y="8918" width="1183" height="2473"/>
    <path fill="rgb(0,0,0)" stroke="none" d="M 11052,11360 C 10920,11313 10857,11258 10795,11136 10739,11027 10738,11016 10732,10407 L 10724,9789 10437,9789 10437,9499 10728,9499 10728,8919 11085,8919 11085,9499 11598,9499 11598,9789 11085,9789 11085,10307 C 11086,10864 11100,10982 11175,11043 11235,11091 11412,11095 11520,11049 L 11595,11018 11610,11113 C 11617,11164 11621,11237 11617,11273 11610,11329 11596,11342 11509,11364 11371,11400 11159,11398 11052,11360 L 11052,11360 Z "/>
   </g>
  </g>
  <g class="com.sun.star.drawing.ClosedBezierShape">
   <g id="id6">
    <rect class="BoundingBox" stroke="none" fill="none" x="13339" y="9464" width="1585" height="1928"/>
    <path fill="rgb(0,0,0)" stroke="none" d="M 13690,11358 C 13551,11316 13396,11168 13363,11048 13331,10931 13332,10763 13366,10649 13405,10519 13567,10362 13715,10314 13841,10271 14163,10236 14429,10235 L 14595,10234 14580,10099 C 14572,10019 14548,9937 14522,9901 14382,9703 13934,9697 13765,9889 13727,9933 13696,9982 13696,10001 13696,10041 13674,10041 13510,10008 13440,9994 13384,9971 13384,9958 13385,9898 13474,9743 13552,9666 13599,9620 13692,9555 13761,9523 13874,9470 13910,9465 14166,9465 14434,9465 14452,9467 14578,9532 14660,9574 14737,9635 14782,9695 14912,9864 14923,9944 14923,10684 L 14923,11349 14589,11349 14589,11221 C 14589,11100 14587,11097 14554,11143 14500,11220 14342,11319 14210,11358 14063,11402 13832,11402 13690,11358 L 13690,11358 Z "/>
   </g>
  </g>
  <g class="com.sun.star.drawing.ClosedBezierShape">
   <g id="id7">
    <rect class="BoundingBox" stroke="none" fill="none" x="13695" y="10496" width="895" height="608"/>
    <path fill="rgb(255,255,255)" stroke="none" d="M 14211,11069 C 14306,11040 14359,11005 14460,10902 14587,10773 14589,10770 14589,10640 14589,10568 14585,10505 14580,10500 14575,10495 14431,10497 14262,10503 14004,10514 13937,10524 13858,10565 13746,10623 13696,10709 13696,10841 13696,11065 13905,11158 14211,11069 L 14211,11069 Z "/>
   </g>
  </g>
  <g class="com.sun.star.drawing.ClosedBezierShape">
   <g id="id8">
    <rect class="BoundingBox" stroke="none" fill="none" x="15329" y="9456" width="1689" height="1933"/>
    <path fill="rgb(0,0,0)" stroke="none" d="M 15970,11365 C 15529,11240 15264,10775 15344,10263 15426,9733 15785,9432 16305,9458 16586,9472 16794,9586 16956,9813 L 17000,9876 16845,9955 C 16699,10028 16688,10030 16676,9990 16668,9967 16623,9912 16576,9870 16421,9730 16165,9715 15962,9835 15655,10016 15591,10616 15847,10918 16041,11148 16481,11135 16681,10892 L 16750,10808 16879,10875 C 16950,10912 17011,10952 17016,10965 17032,11013 16779,11238 16629,11308 16504,11367 16449,11379 16277,11386 16153,11391 16032,11382 15970,11365 L 15970,11365 Z "/>
   </g>
  </g>
  <g class="com.sun.star.drawing.ClosedBezierShape">
   <g id="id9">
    <rect class="BoundingBox" stroke="none" fill="none" x="1351" y="4234" width="7644" height="7140"/>
    <path fill="rgb(62,82,161)" stroke="none" d="M 5612,11328 C 6208,11166 6930,10625 7367,10013 7638,9634 7884,9068 7976,8611 8025,8369 8031,7706 7986,7503 7829,6786 7482,6249 6956,5910 6126,5373 5328,5214 4531,5428 3761,5633 3113,6169 2784,6871 2580,7306 2505,7647 2506,8149 2506,8548 2547,8770 2669,9040 2892,9530 3480,10074 3983,10256 4541,10458 5262,10427 5758,10180 L 5941,10089 5933,9932 C 5927,9821 5937,9748 5962,9687 6097,9364 6499,9286 6748,9535 6995,9781 6908,10180 6577,10318 6524,10341 6454,10347 6358,10340 L 6217,10328 6056,10451 C 5654,10759 4908,10992 4323,10992 3865,10992 3513,10888 3150,10646 3032,10566 2919,10502 2899,10502 2877,10502 2779,10544 2678,10595 2451,10710 2444,10707 2230,10454 1850,9998 1848,9993 2039,9732 2161,9565 2165,9557 2137,9489 2122,9451 2072,9317 2026,9192 1981,9066 1934,8953 1923,8942 1911,8931 1821,8911 1724,8898 1543,8872 1462,8838 1425,8768 1401,8725 1357,8315 1352,8106 1348,7944 1377,7914 1608,7846 1696,7820 1779,7789 1793,7778 1807,7767 1831,7676 1845,7577 1859,7477 1891,7330 1917,7249 L 1962,7102 1781,6935 C 1641,6805 1599,6753 1600,6708 1600,6633 1891,6045 1956,5986 2016,5933 2117,5935 2313,5996 L 2457,6040 2523,5958 C 2559,5911 2663,5802 2753,5713 2843,5625 2917,5535 2917,5514 2917,5493 2890,5393 2857,5292 2769,5024 2751,5049 3272,4733 3400,4656 3524,4592 3547,4592 3571,4592 3672,4672 3773,4768 L 3957,4944 4145,4881 C 4249,4845 4387,4811 4452,4802 4590,4785 4594,4780 4647,4529 4669,4427 4707,4319 4730,4289 L 4774,4234 5176,4240 C 5577,4247 5579,4247 5620,4302 5641,4333 5675,4447 5694,4556 5712,4666 5732,4758 5737,4764 5743,4769 5810,4787 5889,4803 5966,4820 6105,4863 6197,4900 6302,4941 6378,4960 6398,4949 6417,4939 6503,4860 6590,4773 6715,4646 6761,4615 6813,4616 6912,4618 7496,4987 7523,5065 7540,5113 7529,5170 7471,5338 L 7398,5551 7637,5787 C 7904,6051 7852,6034 8179,5973 8340,5943 8341,5943 8394,5998 8422,6029 8519,6195 8608,6368 8729,6603 8766,6698 8756,6738 8749,6769 8670,6852 8575,6930 8394,7079 8382,7106 8430,7268 8442,7311 8467,7436 8485,7546 8503,7655 8530,7757 8545,7772 8562,7786 8642,7820 8723,7847 8806,7874 8900,7917 8933,7943 L 8993,7990 8977,8292 C 8960,8642 8939,8776 8893,8821 8875,8839 8772,8869 8662,8889 8552,8909 8450,8935 8434,8947 8419,8959 8390,9025 8370,9094 8351,9163 8301,9294 8259,9384 8217,9475 8184,9557 8184,9565 8184,9574 8244,9660 8318,9755 8405,9868 8452,9949 8452,9987 8452,10056 8082,10567 7976,10644 7916,10689 7910,10689 7820,10654 7769,10635 7664,10595 7589,10566 L 7452,10514 7275,10681 C 7058,10885 6843,11031 6568,11161 6276,11300 6065,11350 5729,11362 L 5450,11372 5612,11328 5612,11328 Z "/>
   </g>
  </g>
  <g class="com.sun.star.drawing.ClosedBezierShape">
   <g id="id10">
    <rect class="BoundingBox" stroke="none" fill="none" x="12044" y="9453" width="1069" height="1898"/>
    <path fill="rgb(0,0,0)" stroke="none" d="M 12044,10424 L 12044,9499 12402,9499 12402,9772 12495,9665 C 12619,9525 12771,9454 12953,9454 13029,9454 13098,9465 13105,9478 13114,9491 13114,9575 13105,9665 L 13090,9827 13000,9807 C 12784,9759 12545,9880 12437,10094 12407,10154 12402,10256 12402,10757 L 12402,11349 12044,11349 12044,10424 12044,10424 Z "/>
   </g>
  </g>
  <g class="com.sun.star.drawing.ClosedBezierShape">
   <g id="id11">
    <rect class="BoundingBox" stroke="none" fill="none" x="17333" y="8806" width="1583" height="2545"/>
    <path fill="rgb(0,0,0)" stroke="none" d="M 17334,10078 L 17334,8807 17692,8807 17686,9554 C 17682,9965 17680,10301 17682,10301 17683,10301 17857,10115 18070,9887 L 18455,9474 18665,9478 C 18779,9480 18874,9487 18874,9493 18874,9499 18713,9672 18517,9877 L 18161,10250 18914,11349 18492,11349 18207,10915 17922,10480 17807,10598 17690,10715 17690,11349 17334,11349 17334,10078 17334,10078 Z "/>
   </g>
  </g>
  <g class="com.sun.star.drawing.ClosedBezierShape">
   <g id="id12">
    <rect class="BoundingBox" stroke="none" fill="none" x="3413" y="7158" width="1488" height="1155"/>
    <path fill="rgb(255,255,255)" stroke="none" d="M 4250,8246 C 4499,8165 4646,8156 4735,8213 4818,8268 4890,8253 4898,8180 4904,8129 4890,8113 4789,8062 4631,7984 4498,7987 4256,8071 4034,8148 3908,8155 3788,8094 3684,8040 3617,7960 3583,7846 3538,7694 3641,7495 3820,7390 3873,7359 3960,7327 4011,7317 4122,7299 4169,7247 4123,7192 4052,7107 3766,7195 3601,7354 3442,7507 3382,7692 3429,7889 3475,8078 3597,8207 3797,8276 3953,8330 4001,8326 4250,8246 L 4250,8246 Z "/>
   </g>
  </g>
  <g class="com.sun.star.drawing.ClosedBezierShape">
   <g id="id13">
    <rect class="BoundingBox" stroke="none" fill="none" x="5107" y="6202" width="2161" height="1670"/>
    <path fill="rgb(255,255,255)" stroke="none" d="M 7262,7834 C 7299,7736 7096,7541 6902,7488 6852,7475 6800,7461 6787,7457 6773,7454 6755,7418 6747,7378 6724,7260 6627,7118 6522,7046 6396,6959 6178,6903 6043,6920 L 5941,6934 5948,6820 C 5970,6523 5698,6246 5350,6207 5182,6189 5098,6222 5108,6303 5115,6363 5120,6366 5282,6378 5466,6392 5590,6443 5689,6547 5776,6640 5801,6725 5784,6871 5759,7086 5762,7090 6026,7091 6290,7091 6391,7125 6503,7253 6570,7329 6590,7387 6605,7547 6610,7611 6616,7615 6734,7627 6891,7644 7011,7702 7086,7796 7150,7876 7238,7896 7262,7834 L 7262,7834 Z "/>
   </g>
  </g>
  <g class="com.sun.star.drawing.ClosedBezierShape">
   <g id="id14">
    <rect class="BoundingBox" stroke="none" fill="none" x="10338" y="5166" width="2188" height="3082"/>
    <path fill="rgb(62,82,161)" stroke="none" d="M 11053,8214 C 10849,8164 10609,8038 10466,7906 L 10339,7787 10427,7678 C 10475,7618 10554,7527 10600,7477 L 10685,7383 10824,7488 C 11080,7681 11376,7769 11610,7720 11828,7674 11933,7561 11933,7370 11933,7290 11919,7254 11863,7190 11773,7087 11679,7041 11417,6966 10707,6763 10467,6548 10442,6095 10421,5697 10625,5376 10992,5238 11418,5078 12110,5197 12419,5484 L 12470,5532 12410,5603 C 12377,5642 12302,5727 12243,5792 L 12135,5911 11987,5820 C 11727,5665 11386,5622 11211,5724 11037,5826 10983,6060 11101,6200 11173,6286 11298,6343 11645,6452 12134,6603 12364,6754 12477,6998 12516,7083 12524,7143 12524,7336 12524,7555 12520,7579 12452,7718 12330,7964 12104,8128 11767,8215 11601,8258 11233,8257 11053,8214 L 11053,8214 Z "/>
   </g>
  </g>
  <g class="com.sun.star.drawing.ClosedBezierShape">
   <g id="id15">
    <rect class="BoundingBox" stroke="none" fill="none" x="12948" y="5212" width="2284" height="2994"/>
    <path fill="rgb(62,82,161)" stroke="none" d="M 12954,6709 L 12948,5213 13685,5223 C 14462,5233 14528,5241 14754,5349 15098,5515 15278,5895 15220,6330 15189,6571 15094,6763 14939,6903 14712,7107 14446,7179 13909,7179 L 13562,7179 13562,8205 12960,8205 12954,6709 12954,6709 Z "/>
   </g>
  </g>
  <g class="com.sun.star.drawing.ClosedBezierShape">
   <g id="id16">
    <rect class="BoundingBox" stroke="none" fill="none" x="13562" y="5729" width="1072" height="944"/>
    <path fill="rgb(255,255,255)" stroke="none" d="M 14354,6614 C 14532,6536 14632,6384 14633,6186 14634,6055 14563,5899 14474,5835 14378,5765 14176,5730 13858,5730 L 13562,5729 13562,6672 13913,6662 C 14179,6654 14287,6642 14354,6614 L 14354,6614 Z "/>
   </g>
  </g>
  <g class="com.sun.star.drawing.PolyPolygonShape">
   <g id="id17">
    <rect class="BoundingBox" stroke="none" fill="none" x="15682" y="5216" width="627" height="2990"/>
    <path fill="rgb(62,82,161)" stroke="none" d="M 15682,6710 L 15682,5217 16307,5217 16307,8205 15682,8205 15682,6710 15682,6710 Z "/>
   </g>
  </g>
  <g class="com.sun.star.drawing.ClosedBezierShape">
   <g id="id18">
    <rect class="BoundingBox" stroke="none" fill="none" x="16909" y="5215" width="2546" height="2991"/>
    <path fill="rgb(62,82,161)" stroke="none" d="M 16909,6710 L 16909,5215 17215,5221 17521,5228 17909,5819 C 18121,6144 18422,6605 18576,6844 18730,7084 18864,7288 18873,7298 18882,7308 18885,6844 18879,6266 L 18867,5217 19430,5217 19436,5746 C 19441,6038 19446,6710 19449,7241 L 19454,8205 18850,8205 18367,7474 C 18101,7073 17792,6603 17679,6429 L 17474,6113 17485,7159 17496,8205 16909,8205 16909,6710 16909,6710 Z "/>
   </g>
  </g>
 </g>
</svg>