<?xml version="1.0" encoding="UTF-8"?>
<!DOCTYPE svg PUBLIC "-//W3C//DTD SVG 1.1//EN" "http://www.w3.org/Graphics/SVG/1.1/DTD/svg11.dtd">
<svg version="1.2" width="93.4mm" height="93.4mm" viewBox="0 0 9340 9340" preserveAspectRatio="xMidYMid" fill-rule="evenodd" stroke-width="28.222" stroke-linejoin="round" xmlns="http://www.w3.org/2000/svg" xmlns:ooo="http://xml.openoffice.org/svg/export" xmlns:xlink="http://www.w3.org/1999/xlink" xmlns:presentation="http://sun.com/xmlns/staroffice/presentation" xmlns:smil="http://www.w3.org/2001/SMIL20/" xmlns:anim="urn:oasis:names:tc:opendocument:xmlns:animation:1.0" xmlns:svg="urn:oasis:names:tc:opendocument:xmlns:svg-compatible:1.0" xml:space="preserve">
 <defs class="ClipPathGroup">
  <clipPath id="presentation_clip_path" clipPathUnits="userSpaceOnUse">
   <rect x="0" y="0" width="9340" height="9340"/>
  </clipPath>
  <clipPath id="presentation_clip_path_shrink" clipPathUnits="userSpaceOnUse">
   <rect x="9" y="9" width="9322" height="9322"/>
  </clipPath>
 </defs>
 <defs class="TextShapeIndex">
  <g ooo:slide="id1" ooo:id-list="id3 id4 id5"/>
 </defs>
 <defs class="EmbeddedBulletChars">
  <g id="bullet-char-template-57356" transform="scale(0.00048828125,-0.00048828125)">
   <path d="M 580,1141 L 1163,571 580,0 -4,571 580,1141 Z"/>
  </g>
  <g id="bullet-char-template-57354" transform="scale(0.00048828125,-0.00048828125)">
   <path d="M 8,1128 L 1137,1128 1137,0 8,0 8,1128 Z"/>
  </g>
  <g id="bullet-char-template-10146" transform="scale(0.00048828125,-0.00048828125)">
   <path d="M 174,0 L 602,739 174,1481 1456,739 174,0 Z M 1358,739 L 309,1346 659,739 1358,739 Z"/>
  </g>
  <g id="bullet-char-template-10132" transform="scale(0.00048828125,-0.00048828125)">
   <path d="M 2015,739 L 1276,0 717,0 1260,543 174,543 174,936 1260,936 717,1481 1274,1481 2015,739 Z"/>
  </g>
  <g id="bullet-char-template-10007" transform="scale(0.00048828125,-0.00048828125)">
   <path d="M 0,-2 C -7,14 -16,27 -25,37 L 356,567 C 262,823 215,952 215,954 215,979 228,992 255,992 264,992 276,990 289,987 310,991 331,999 354,1012 L 381,999 492,748 772,1049 836,1024 860,1049 C 881,1039 901,1025 922,1006 886,937 835,863 770,784 769,783 710,716 594,584 L 774,223 C 774,196 753,168 711,139 L 727,119 C 717,90 699,76 672,76 641,76 570,178 457,381 L 164,-76 C 142,-110 111,-127 72,-127 30,-127 9,-110 8,-76 1,-67 -2,-52 -2,-32 -2,-23 -1,-13 0,-2 Z"/>
  </g>
  <g id="bullet-char-template-10004" transform="scale(0.00048828125,-0.00048828125)">
   <path d="M 285,-33 C 182,-33 111,30 74,156 52,228 41,333 41,471 41,549 55,616 82,672 116,743 169,778 240,778 293,778 328,747 346,684 L 369,508 C 377,444 397,411 428,410 L 1163,1116 C 1174,1127 1196,1133 1229,1133 1271,1133 1292,1118 1292,1087 L 1292,965 C 1292,929 1282,901 1262,881 L 442,47 C 390,-6 338,-33 285,-33 Z"/>
  </g>
  <g id="bullet-char-template-9679" transform="scale(0.00048828125,-0.00048828125)">
   <path d="M 813,0 C 632,0 489,54 383,161 276,268 223,411 223,592 223,773 276,916 383,1023 489,1130 632,1184 813,1184 992,1184 1136,1130 1245,1023 1353,916 1407,772 1407,592 1407,412 1353,268 1245,161 1136,54 992,0 813,0 Z"/>
  </g>
  <g id="bullet-char-template-8226" transform="scale(0.00048828125,-0.00048828125)">
   <path d="M 346,457 C 273,457 209,483 155,535 101,586 74,649 74,723 74,796 101,859 155,911 209,963 273,989 346,989 419,989 480,963 531,910 582,859 608,796 608,723 608,648 583,586 532,535 482,483 420,457 346,457 Z"/>
  </g>
  <g id="bullet-char-template-8211" transform="scale(0.00048828125,-0.00048828125)">
   <path d="M -4,459 L 1135,459 1135,606 -4,606 -4,459 Z"/>
  </g>
  <g id="bullet-char-template-61548" transform="scale(0.00048828125,-0.00048828125)">
   <path d="M 173,740 C 173,903 231,1043 346,1159 462,1274 601,1332 765,1332 928,1332 1067,1274 1183,1159 1299,1043 1357,903 1357,740 1357,577 1299,437 1183,322 1067,206 928,148 765,148 601,148 462,206 346,322 231,437 173,577 173,740 Z"/>
  </g>
 </defs>
 <g>
  <g id="id2" class="Master_Slide">
   <g id="bg-id2" class="Background"/>
   <g id="bo-id2" class="BackgroundObjects"/>
  </g>
 </g>
 <g class="SlideGroup">
  <g>
   <g id="container-id1">
    <g id="id1" class="Slide" clip-path="url(#presentation_clip_path)">
     <g class="Page">
      <g class="com.sun.star.drawing.ClosedBezierShape">
       <g id="id3">
        <rect class="BoundingBox" stroke="none" fill="none" x="584" y="231" width="6733" height="8540"/>
        <path fill="rgb(42,96,153)" stroke="none" d="M 4852,920 C 3771,1100 2939,1696 2364,2730 2074,3253 1907,3826 1869,4445 1793,5687 2176,6701 3080,7432 3663,7903 4327,8067 5041,7973 5519,7910 5953,7727 6340,7406 6351,7397 6366,7393 6395,7379 6372,7493 6294,7539 6242,7600 5682,8240 5012,8651 4214,8745 2874,8904 1863,8282 1146,7028 722,6287 549,5460 590,4587 687,2502 1916,770 3835,331 4589,158 5338,202 6060,534 6529,749 6922,1088 7285,1477 7301,1494 7321,1512 7313,1544 7293,1562 7276,1549 7260,1537 6561,1025 5793,832 4966,898 4932,901 4897,912 4852,920 Z "/>
       </g>
      </g>
      <g class="com.sun.star.drawing.ClosedBezierShape">
       <g id="id4">
        <rect class="BoundingBox" stroke="none" fill="none" x="2661" y="1281" width="6417" height="7834"/>
        <path fill="rgb(42,96,153)" stroke="none" d="M 8203,2511 C 8865,3295 9153,4200 9059,5202 8934,6547 8250,7572 7143,8323 6523,8744 5838,8998 5096,9088 4750,9130 4402,9117 4056,9070 4039,9067 4022,9064 4013,9030 4167,9014 4320,9018 4472,9006 5151,8951 5764,8717 6330,8346 7193,7780 7810,7019 8050,6008 8352,4732 8056,3613 7043,2736 6584,2339 6037,2104 5430,2035 4388,1916 3496,2241 2752,2978 2731,2999 2716,3029 2678,3030 2642,2994 2677,2966 2692,2939 3240,1947 4102,1420 5209,1303 6409,1176 7400,1609 8203,2511 Z "/>
       </g>
      </g>
      <g class="com.sun.star.drawing.ClosedBezierShape">
       <g id="id5">
        <rect class="BoundingBox" stroke="none" fill="none" x="2562" y="2520" width="4976" height="4892"/>
        <path fill="rgb(80,147,138)" stroke="none" d="M 6568,6746 C 6517,6828 6431,6888 6338,6917 6225,6952 6190,7027 6215,7128 6270,7353 6140,7424 5931,7408 5614,7384 5611,7388 5528,7072 5435,6719 5188,6494 4891,6312 4835,6278 4770,6291 4709,6293 4414,6303 4167,6200 3978,5970 3927,5909 3874,5901 3793,5912 3168,5997 2683,5680 2585,5120 2532,4820 2572,4524 2716,4248 2765,4154 2799,4058 2821,3953 2911,3537 3183,3268 3555,3090 3629,3055 3689,3012 3740,2949 4017,2612 4422,2497 4830,2644 4922,2678 4993,2668 5078,2624 5369,2473 5654,2483 5922,2681 5966,2714 6011,2732 6067,2736 6266,2752 6436,2820 6528,3015 6555,3072 6612,3090 6660,3120 6907,3277 7136,3459 7191,3762 7222,3932 7291,4069 7378,4212 7516,4440 7572,4692 7514,4959 7463,5200 7431,5440 7426,5687 7420,5984 7269,6213 7017,6385 6830,6469 6675,6573 6568,6746 Z M 3951,3411 C 3933,3293 3846,3230 3750,3274 3552,3364 3365,3471 3230,3649 3145,3761 3081,3882 3073,4037 3198,4019 3310,3987 3422,3990 3551,3993 3673,3996 3784,3916 3820,3890 3867,3893 3912,3908 4025,3945 4086,4020 4097,4139 4106,4243 4068,4322 3973,4365 3862,4415 3758,4388 3688,4296 3617,4202 3536,4188 3433,4216 3400,4225 3363,4224 3329,4230 3170,4258 3014,4300 2911,4432 2854,4504 2782,4590 2877,4688 2973,4789 3097,4803 3201,4723 3298,4650 3470,4621 3545,4697 3708,4866 3909,4820 4102,4826 4206,4829 4289,4783 4359,4710 4487,4576 4605,4434 4712,4283 4751,4228 4767,4177 4738,4112 4684,3991 4727,3890 4813,3801 4850,3763 4896,3733 4897,3672 4899,3461 4913,3249 4856,3042 4818,2901 4684,2792 4545,2804 4410,2815 4272,2831 4149,2896 4097,2923 4016,2939 4028,3016 4039,3086 4091,3142 4159,3173 4191,3187 4227,3192 4259,3207 4428,3285 4473,3486 4337,3646 4096,3722 3989,3656 3951,3411 Z M 5603,5122 C 5566,5045 5512,5001 5428,4979 5306,4947 5226,4868 5229,4733 5231,4609 5322,4496 5453,4476 5530,4465 5568,4428 5599,4364 5760,4030 5748,3683 5664,3336 5634,3211 5623,3106 5726,3010 5815,2927 5788,2824 5669,2783 5624,2767 5574,2757 5527,2758 5304,2765 5080,2804 5099,3142 5107,3278 5104,3415 5099,3552 5096,3656 5116,3743 5187,3830 5323,3997 5238,4224 5029,4279 4988,4289 4956,4303 4931,4338 4827,4485 4721,4631 4618,4778 4557,4863 4554,4946 4631,5028 4678,5079 4716,5139 4759,5195 4799,5248 4831,5317 4895,5335 5082,5391 5271,5454 5490,5373 5649,5319 5671,5265 5603,5122 Z M 5937,5655 C 5912,5530 5842,5502 5725,5537 5611,5571 5495,5597 5379,5621 5305,5637 5251,5672 5210,5735 5144,5835 5063,5917 4928,5884 4807,5856 4728,5750 4721,5595 4718,5519 4693,5459 4643,5406 4567,5327 4493,5244 4414,5168 4299,5057 4206,5053 4054,5151 4093,5269 4155,5394 4116,5519 4063,5693 4152,5796 4264,5896 4421,6036 4604,6074 4805,6024 4876,6007 4952,5988 5007,6040 5207,6230 5448,6380 5592,6627 5670,6762 5727,6905 5772,7052 5799,7136 5855,7164 5934,7145 6013,7126 6011,7058 6007,6995 6005,6969 5994,6944 5989,6918 5964,6781 6002,6728 6142,6724 6255,6720 6345,6672 6419,6592 6446,6562 6480,6520 6434,6490 6326,6419 6264,6290 6118,6262 5998,6239 5945,6113 5977,5992 5987,5955 5994,5916 5996,5858 5976,5791 5951,5724 5937,5655 Z M 7292,4961 C 7320,4778 7334,4593 7244,4419 7206,4344 7156,4319 7078,4386 6988,4466 6888,4453 6784,4400 6512,4261 6229,4220 5930,4306 5815,4339 5755,4416 5743,4520 5728,4654 5730,4791 5739,4927 5745,5031 5890,5150 5985,5115 6207,5035 6457,4993 6577,4743 6617,4660 6697,4606 6791,4615 6887,4624 6979,4672 6994,4776 7009,4881 7075,4925 7170,4976 7215,5001 7279,5048 7292,4961 Z M 3376,5662 C 3505,5700 3635,5717 3760,5648 3887,5578 3925,5437 3855,5296 3781,5143 3690,5104 3548,5165 3434,5214 3306,5226 3236,5120 3128,4957 2957,5012 2823,4938 2790,5114 2853,5270 3034,5471 3135,5559 3248,5624 3376,5662 Z M 6856,3952 C 6968,3900 6983,3816 6934,3711 6861,3555 6740,3441 6605,3339 6547,3296 6506,3306 6468,3372 6384,3517 6298,3661 6203,3799 6148,3879 6172,3931 6241,3973 6381,4055 6534,4085 6713,4066 6753,4018 6799,3978 6856,3952 Z M 6240,5301 C 6462,5406 6638,5559 6860,5623 6981,5659 7118,5671 7199,5555 7276,5444 7195,5335 7133,5241 7100,5191 7047,5154 7001,5114 6978,5094 6949,5074 6917,5093 6811,5153 6713,5111 6594,5075 6469,5129 6333,5168 6240,5301 Z M 7118,5905 C 7050,5896 6980,5890 6912,5878 6721,5842 6562,5738 6401,5639 6324,5591 6255,5510 6131,5544 6197,5675 6203,5824 6336,5910 6386,5941 6404,6001 6417,6057 6458,6231 6581,6303 6749,6245 6887,6198 6991,6103 7091,5978 7100,5955 7128,5939 7118,5905 Z M 6125,3520 C 6176,3427 6233,3338 6276,3242 6322,3140 6276,3035 6176,2990 6137,2973 6094,2950 6051,2983 6012,3012 6017,3057 6030,3092 6072,3209 6025,3300 5952,3381 5877,3465 5896,3562 5898,3657 5899,3685 5915,3708 5942,3718 5974,3730 5993,3708 6008,3687 6045,3637 6079,3586 6125,3520 Z "/>
       </g>
      </g>
     </g>
    </g>
   </g>
  </g>
 </g>
</svg>